<?xml version="1.0" standalone="no"?>
<!DOCTYPE svg PUBLIC "-//W3C//DTD SVG 20010904//EN"
 "http://www.w3.org/TR/2001/REC-SVG-20010904/DTD/svg10.dtd">
<svg version="1.0" xmlns="http://www.w3.org/2000/svg"
 width="512.000000pt" height="512.000000pt" viewBox="0 0 512.000000 512.000000"
 preserveAspectRatio="xMidYMid meet">
<metadata>
Created by potrace 1.11, written by Peter Selinger 2001-2013
</metadata>
<g transform="translate(0.000000,512.000000) scale(0.100000,-0.100000)"
fill="#000000" stroke="none">
<path d="M2164 4036 c-17 -8 -41 -27 -52 -44 -12 -16 -37 -45 -56 -64 -20 -20
-37 -49 -41 -70 -7 -35 -8 -35 -64 -41 -72 -6 -110 -26 -179 -90 -57 -55 -65
-57 -194 -57 -40 1 -53 -5 -85 -33 -21 -19 -55 -42 -75 -52 -40 -18 -148 -137
-148 -162 0 -9 5 -54 10 -102 6 -47 44 -475 85 -951 42 -476 78 -888 81 -917
4 -42 13 -60 47 -99 134 -152 622 -246 1197 -231 525 14 892 101 1000 238 l36
46 27 334 c15 184 47 577 72 874 24 297 47 607 51 688 l7 148 -27 28 c-16 16
-56 42 -89 57 -34 15 -70 38 -80 51 -27 33 -71 54 -122 56 -42 2 -46 5 -67 47
-13 26 -37 54 -57 65 -18 11 -54 41 -79 68 -51 53 -127 83 -179 71 -43 -11
-96 -39 -122 -68 l-24 -25 -30 29 c-30 29 -81 50 -123 50 -11 0 -33 14 -50 31
-62 66 -146 77 -237 31 l-57 -29 -22 25 c-34 36 -108 70 -169 77 -30 4 -71 13
-92 21 -45 17 -53 17 -93 0z"/>
</g>
</svg>
