{
  "accessors": [
    {
      "bufferView": 2,
      "componentType": 5126,
      "count": 65532,
      "max": [
        69.768043518066406,
        74.024986267089844,
        -2.0181899070739746
      ],
      "min": [
        -69.77813720703125,
        -73.785552978515625,
        -74.4249267578125
      ],
      "type": "VEC3"
    },
    {
      "bufferView": 2,
      "byteOffset": 786384,
      "componentType": 5126,
      "count": 65532,
      "max": [
        0.9999963641166687,
        0.99998873472213745,
        0.99995863437652588
      ],
      "min": [
        -0.99999725818634033,
        -0.99990308284759521,
        -1
      ],
      "type": "VEC3"
    },
    {
      "bufferView": 3,
      "componentType": 5126,
      "count": 65532,
      "max": [
        0.99999558925628662,
        0.99991035461425781,
        0.99954432249069214,
        1
      ],
      "min": [
        -0.99998879432678223,
        -0.99996089935302734,
        -0.99976092576980591,
        -1
      ],
      "type": "VEC4"
    },
    {
      "bufferView": 1,
      "componentType": 5126,
      "count": 65532,
      "max": [
        1.6777800321578979,
        1.1504199504852295
      ],
      "min": [
        -0.2740899920463562,
        -4.5466299057006836
      ],
      "type": "VEC2"
    },
    {
      "bufferView": 0,
      "componentType": 5125,
      "count": 155268,
      "max": [
        65531
      ],
      "min": [
        0
      ],
      "type": "SCALAR"
    },
    {
      "bufferView": 2,
      "byteOffset": 1572768,
      "componentType": 5126,
      "count": 65533,
      "max": [
        69.670112609863281,
        73.763969421386719,
        7.9415698051452637
      ],
      "min": [
        -69.624946594238281,
        -73.217483520507812,
        -70.054893493652344
      ],
      "type": "VEC3"
    },
    {
      "bufferView": 2,
      "byteOffset": 2359164,
      "componentType": 5126,
      "count": 65533,
      "max": [
        0.99997198581695557,
        0.99991083145141602,
        0.99996721744537354
      ],
      "min": [
        -0.99999725818634033,
        -0.99999153614044189,
        -0.99982726573944092
      ],
      "type": "VEC3"
    },
    {
      "bufferView": 3,
      "byteOffset": 1048512,
      "componentType": 5126,
      "count": 65533,
      "max": [
        0.99998283386230469,
        0.99998569488525391,
        0.99984288215637207,
        1
      ],
      "min": [
        -0.99998182058334351,
        -0.99999260902404785,
        -0.99985909461975098,
        -1
      ],
      "type": "VEC4"
    },
    {
      "bufferView": 1,
      "byteOffset": 524256,
      "componentType": 5126,
      "count": 65533,
      "max": [
        1.175089955329895,
        0.99852001667022705
      ],
      "min": [
        0.00023999999393709004,
        -4.663330078125
      ],
      "type": "VEC2"
    },
    {
      "bufferView": 0,
      "byteOffset": 621072,
      "componentType": 5125,
      "count": 145974,
      "max": [
        65532
      ],
      "min": [
        0
      ],
      "type": "SCALAR"
    },
    {
      "bufferView": 2,
      "byteOffset": 3145560,
      "componentType": 5126,
      "count": 34431,
      "max": [
        55.345619201660156,
        33.170890808105469,
        42.253738403320312
      ],
      "min": [
        -34.937339782714844,
        -29.11754035949707,
        -49.054450988769531
      ],
      "type": "VEC3"
    },
    {
      "bufferView": 2,
      "byteOffset": 3558732,
      "componentType": 5126,
      "count": 34431,
      "max": [
        0.99999421834945679,
        0.99991083145141602,
        0.99993216991424561
      ],
      "min": [
        -0.99994421005249023,
        -0.99992835521697998,
        -0.99979734420776367
      ],
      "type": "VEC3"
    },
    {
      "bufferView": 3,
      "byteOffset": 2097040,
      "componentType": 5126,
      "count": 34431,
      "max": [
        0.99987953901290894,
        0.99980360269546509,
        0.99903976917266846,
        1
      ],
      "min": [
        -1,
        -0.99976867437362671,
        -0.99964910745620728,
        -1
      ],
      "type": "VEC4"
    },
    {
      "bufferView": 1,
      "byteOffset": 1048520,
      "componentType": 5126,
      "count": 34431,
      "max": [
        0.99773001670837402,
        1.0051699876785278
      ],
      "min": [
        -0.069580003619194031,
        -4.7922401428222656
      ],
      "type": "VEC2"
    },
    {
      "bufferView": 0,
      "byteOffset": 1204968,
      "componentType": 5125,
      "count": 67914,
      "max": [
        34430
      ],
      "min": [
        0
      ],
      "type": "SCALAR"
    }
  ],
  "asset": {
    "extras": {
      "author": "ronenh (https://sketchfab.com/ronenh)",
      "license": "CC-BY-ND-4.0 (http://creativecommons.org/licenses/by-nd/4.0/)",
      "source": "https://sketchfab.com/3d-models/pop-corn-947c22d20de84d2b866a61bbdec6837c",
      "title": "Pop Corn"
    },
    "generator": "Sketchfab-4.97.1",
    "version": "2.0"
  },
  "bufferViews": [
    {
      "buffer": 0,
      "byteLength": 1476624,
      "byteOffset": 0,
      "name": "floatBufferViews",
      "target": 34963
    },
    {
      "buffer": 0,
      "byteLength": 1323968,
      "byteOffset": 1476624,
      "byteStride": 8,
      "name": "floatBufferViews",
      "target": 34962
    },
    {
      "buffer": 0,
      "byteLength": 3971904,
      "byteOffset": 2800592,
      "byteStride": 12,
      "name": "floatBufferViews",
      "target": 34962
    },
    {
      "buffer": 0,
      "byteLength": 2647936,
      "byteOffset": 6772496,
      "byteStride": 16,
      "name": "floatBufferViews",
      "target": 34962
    }
  ],
  "buffers": [
    {
      "byteLength": 9420432,
      "uri": "scene.bin"
    }
  ],
  "extensionsUsed": [
    "KHR_materials_unlit"
  ],
  "images": [
    {
      "uri": "textures/material0_emissive.jpeg"
    },
    {
      "uri": "textures/material0_baseColor.jpeg"
    }
  ],
  "materials": [
    {
      "doubleSided": true,
      "emissiveFactor": [
        0,
        0,
        0
      ],
      "emissiveTexture": {
        "index": 0,
        "texCoord": 0
      },
      "extensions": {
        "KHR_materials_unlit": {}
      },
      "name": "material0",
      "pbrMetallicRoughness": {
        "baseColorFactor": [
          1,
          1,
          1,
          1
        ],
        "baseColorTexture": {
          "index": 1,
          "texCoord": 0
        },
        "metallicFactor": 0,
        "roughnessFactor": 1
      }
    }
  ],
  "meshes": [
    {
      "primitives": [
        {
          "attributes": {
            "NORMAL": 1,
            "POSITION": 0,
            "TANGENT": 2,
            "TEXCOORD_0": 3
          },
          "indices": 4,
          "material": 0,
          "mode": 4
        }
      ]
    },
    {
      "primitives": [
        {
          "attributes": {
            "NORMAL": 6,
            "POSITION": 5,
            "TANGENT": 7,
            "TEXCOORD_0": 8
          },
          "indices": 9,
          "material": 0,
          "mode": 4
        }
      ]
    },
    {
      "primitives": [
        {
          "attributes": {
            "NORMAL": 11,
            "POSITION": 10,
            "TANGENT": 12,
            "TEXCOORD_0": 13
          },
          "indices": 14,
          "material": 0,
          "mode": 4
        }
      ]
    }
  ],
  "nodes": [
    {
      "children": [
        1
      ],
      "name": "RootNode (gltf orientation matrix)",
      "rotation": [
        -0.70710678118654746,
        -0,
        -0,
        0.70710678118654757
      ]
    },
    {
      "children": [
        2
      ],
      "name": "RootNode (model correction matrix)"
    },
    {
      "children": [
        3,
        4,
        5
      ],
      "name": "model_Pop Corn_20190423_173811174.obj.cleaner.materialmerger.gles"
    },
    {
      "mesh": 0,
      "name": ""
    },
    {
      "mesh": 1,
      "name": ""
    },
    {
      "mesh": 2,
      "name": ""
    }
  ],
  "samplers": [
    {
      "magFilter": 9729,
      "minFilter": 9987,
      "wrapS": 10497,
      "wrapT": 10497
    }
  ],
  "scene": 0,
  "scenes": [
    {
      "name": "OSG_Scene",
      "nodes": [
        0
      ]
    }
  ],
  "textures": [
    {
      "sampler": 0,
      "source": 0
    },
    {
      "sampler": 0,
      "source": 1
    }
  ]
}

